<svg width="22" height="22" viewBox="0 0 22 22" fill="none" xmlns="http://www.w3.org/2000/svg">
    <path d="M10.4787 18.8806C10.4787 17.6662 9.4907 16.6782 8.2763 16.6782C7.0619 16.6782 6.07391 17.6662 6.07391 18.8806C6.07391 20.095 7.0619 21.0829 8.2763 21.0829C9.4907 21.0829 10.4787 20.095 10.4787 18.8806ZM7.03025 18.8806C7.03025 18.1935 7.58917 17.6346 8.2763 17.6346C8.96342 17.6346 9.52235 18.1935 9.52235 18.8806C9.52235 19.5677 8.96338 20.1266 8.2763 20.1266C7.58922 20.1266 7.03025 19.5677 7.03025 18.8806Z" fill="white" stroke="white" stroke-width="0.5"/>
    <path d="M19.1467 18.8806C19.1467 17.6662 18.1588 16.6782 16.9444 16.6782C15.73 16.6782 14.742 17.6662 14.742 18.8806C14.742 20.095 15.73 21.0829 16.9444 21.0829C18.1588 21.0829 19.1467 20.095 19.1467 18.8806ZM15.6984 18.8806C15.6984 18.1935 16.2573 17.6346 16.9444 17.6346C17.6315 17.6346 18.1905 18.1935 18.1905 18.8806C18.1905 19.5677 17.6315 20.1266 16.9444 20.1266C16.2572 20.1266 15.6984 19.5677 15.6984 18.8806Z" fill="white" stroke="white" stroke-width="0.5"/>
    <path d="M1.47817 1.95633H2.84601C3.548 1.95633 4.14279 2.45865 4.26023 3.15074L5.99167 13.3507C6.18748 14.5043 7.17877 15.3415 8.34879 15.3415H18.542C18.8061 15.3415 19.0202 15.1274 19.0202 14.8633C19.0202 14.5992 18.8061 14.3852 18.542 14.3852H8.34884C7.64684 14.3852 7.05205 13.8828 6.93462 13.1908L6.76056 12.1654H16.7553C18.0068 12.1654 19.1047 11.3647 19.4871 10.173L20.9771 5.52991C21.0238 5.38445 20.9981 5.22546 20.9082 5.10204C20.8182 4.97863 20.6746 4.90566 20.5218 4.90566H5.52819L5.20313 2.9908C5.00737 1.83722 4.01603 1 2.84606 1H1.47817C1.21412 1 1 1.21407 1 1.47817C1 1.74226 1.21412 1.95633 1.47817 1.95633ZM19.8662 5.86195L18.5765 9.88079C18.3215 10.6752 17.5896 11.209 16.7552 11.209H6.59818L5.69052 5.8619H19.8662V5.86195Z" fill="white" stroke="white" stroke-width="0.5"/>
</svg>

