<svg width="20" height="21" viewBox="0 0 20 21" fill="none" xmlns="http://www.w3.org/2000/svg">
    <path d="M13.5607 2.07367H1.03683C0.463847 2.07367 0 1.60982 0 1.03683C0 0.463847 0.463847 0 1.03683 0H13.5607C14.1337 0 14.5975 0.463847 14.5975 1.03683C14.5975 1.60982 14.1337 2.07367 13.5607 2.07367Z" fill="white"/>
    <path d="M18.9632 11.0777H1.03683C0.463847 11.0777 0 10.6139 0 10.0409C0 9.46788 0.463847 9.00403 1.03683 9.00403H18.9632C19.5362 9.00403 20 9.46788 20 10.0409C20 10.6139 19.5362 11.0777 18.9632 11.0777Z" fill="white"/>
    <path d="M13.5607 20.0818H1.03683C0.463847 20.0818 0 19.618 0 19.045C0 18.472 0.463847 18.0082 1.03683 18.0082H13.5607C14.1337 18.0082 14.5975 18.472 14.5975 19.045C14.5975 19.618 14.1337 20.0818 13.5607 20.0818Z" fill="white"/>
</svg>


